<svg xmlns="http://www.w3.org/2000/svg" xmlns:xlink="http://www.w3.org/1999/xlink" width="500" zoomAndPan="magnify" viewBox="0 0 375 374.999991" height="500" preserveAspectRatio="xMidYMid meet" version="1.0"><defs><clipPath id="9770b33efd"><path d="M 0 0 L 301.5 0 L 301.5 373.5 L 0 373.5 Z M 0 0 " clip-rule="nonzero"/></clipPath><clipPath id="84732342f5"><path d="M 244 0 L 359 0 L 359 213.75 L 244 213.75 Z M 244 0 " clip-rule="nonzero"/></clipPath></defs><g clip-path="url(#9770b33efd)"><path fill="#2dd4bf" d="M 301.148438 373.433594 L 0.492188 373.433594 L 0.492188 343.609375 L 271.328125 343.609375 L 271.328125 299.035156 L 0.0234375 299.0625 L 0.730469 0.210938 L 104.800781 0.210938 L 104.800781 220.25 L 74.984375 220.25 L 74.984375 30.035156 L 30.480469 30.035156 L 29.917969 269.242188 L 301.148438 269.214844 L 301.148438 373.433594 " fill-opacity="1" fill-rule="nonzero"/></g><g clip-path="url(#84732342f5)"><path fill="#2dd4bf" d="M 254.421875 164.207031 C 254.421875 164.207031 252.589844 141.269531 262.898438 130.296875 C 273.207031 119.328125 300.796875 93.730469 303.128906 72.785156 C 303.128906 72.785156 309.777344 85.746094 306.453125 95.058594 C 306.453125 95.058594 315.101562 84.089844 314.097656 68.460938 C 314.097656 68.460938 326.398438 32.554688 311.773438 -0.0234375 C 311.773438 -0.0234375 374.941406 52.503906 337.703125 115.671875 C 337.703125 115.671875 351.996094 107.359375 358.316406 94.390625 C 358.316406 94.390625 347.679688 136.945312 306.453125 158.554688 C 306.453125 158.554688 319.917969 156.0625 328.898438 150.074219 C 328.898438 150.074219 309.449219 171.851562 276.199219 178.171875 C 242.953125 184.484375 251.265625 214.078125 251.265625 214.078125 C 251.265625 214.078125 232.980469 191.800781 258.246094 171.523438 C 283.515625 151.246094 323.410156 128.636719 330.058594 96.054688 C 330.058594 96.054688 320.753906 119.996094 294.488281 137.949219 C 268.21875 155.894531 254.421875 164.207031 254.421875 164.207031 " fill-opacity="1" fill-rule="evenodd"/></g></svg>